<svg version="1.1" id="Layer_1" xmlns="http://www.w3.org/2000/svg" xmlns:xlink="http://www.w3.org/1999/xlink" x="0" y="0" viewBox="0 0 843.5 837" xml:space="preserve">
  <style>
    .st2,.st3,.st4,.st6,.st9{clip-path:url(#SVGID_4_);fill:#edef21}.st3,.st4,.st6,.st9{fill:#64bc90}.st4,.st6,.st9{fill:#388060}.st6,.st9{fill:#97efc1}.st9{fill:#fff}.st11{fill:none;stroke:#fff;stroke-width:11.69;stroke-linecap:round;stroke-miterlimit:10}.st11,.st12,.st13{clip-path:url(#SVGID_4_)}.st12{fill:none;stroke:#fff;stroke-width:5.984;stroke-linecap:round;stroke-miterlimit:10}.st13{opacity:.4;enable-background:new}.st15,.st16,.st20{clip-path:url(#SVGID_4_);fill:#ffccb3}.st16,.st20{fill:#f7bcb0}.st20{fill:none;stroke:#fff;stroke-width:12;stroke-linecap:round;stroke-miterlimit:10}
  </style>
  <defs>
    <path id="SVGID_1_" d="M0 0h843.5v837H0z"/>
  </defs>
  <clipPath id="SVGID_2_">
    <use xlink:href="#SVGID_1_" overflow="visible"/>
  </clipPath>
  <g clip-path="url(#SVGID_2_)">
    <defs>
      <path id="SVGID_3_" d="M0 0h843.5v837H0z"/>
    </defs>
    <clipPath id="SVGID_4_">
      <use xlink:href="#SVGID_3_" overflow="visible"/>
    </clipPath>
    <circle cx="436.7" cy="388" r="358.7" clip-path="url(#SVGID_4_)" fill="none" stroke="#d1e8f7" stroke-width="1.916" stroke-miterlimit="10"/>
    <path class="st2" d="M144.9 190c7 0 12.6-5.7 12.6-12.6 0-7-5.7-12.6-12.6-12.6-7 0-12.6 5.7-12.6 12.6 0 6.9 5.7 12.6 12.6 12.6"/>
    <path class="st3" d="M795.4 414.3c7 0 12.6-5.7 12.6-12.6s-5.7-12.6-12.6-12.6c-7 0-12.6 5.7-12.6 12.6s5.6 12.6 12.6 12.6"/>
    <path class="st4" d="M451.4 759.3c7 0 12.6-5.7 12.6-12.6 0-7-5.7-12.6-12.6-12.6-7 0-12.6 5.7-12.6 12.6 0 6.9 5.7 12.6 12.6 12.6"/>
    <circle cx="445" cy="390.3" r="267.6" clip-path="url(#SVGID_4_)" fill="none" stroke="#d1e8f7" stroke-width="1.43" stroke-miterlimit="10"/>
    <path class="st2" d="M708 453.6c5.2 0 9.4-4.2 9.4-9.4s-4.2-9.4-9.4-9.4-9.4 4.2-9.4 9.4 4.2 9.4 9.4 9.4"/>
    <path class="st6" d="M196.9 500.3c5.2 0 9.4-4.2 9.4-9.4s-4.2-9.4-9.4-9.4-9.4 4.2-9.4 9.4 4.2 9.4 9.4 9.4"/>
    <path d="M325.2 160.3c5.2 0 9.4-4.2 9.4-9.4s-4.2-9.4-9.4-9.4-9.4 4.2-9.4 9.4 4.2 9.4 9.4 9.4" clip-path="url(#SVGID_4_)" fill="#1c85e8"/>
    <path d="M584.3 686.6h-309c-13.4 0-23.2-10.9-21.9-24.3l52.7-548.7c1.3-13.4 13.2-24.3 26.6-24.3h309c13.4 0 23.2 10.9 21.9 24.3l-52.7 548.7c-1.3 13.4-13.2 24.3-26.6 24.3" clip-path="url(#SVGID_4_)" fill="#bcb819"/>
    <path class="st2" d="M562.5 686.6h-309c-13.4 0-23.2-10.9-21.9-24.3l52.7-548.7c1.3-13.4 13.2-24.3 26.6-24.3h309c13.4 0 23.2 10.9 21.9 24.3l-52.7 548.7c-1.3 13.4-13.2 24.3-26.6 24.3"/>
    <path class="st9" d="M550.8 668.4H268.7c-12.4 0-21.5-10.1-20.3-22.5L298 130.1c1.2-12.4 12.2-22.5 24.7-22.5h282.1c12.4 0 21.5 10.1 20.3 22.5l-49.6 515.8c-1.2 12.4-12.3 22.5-24.7 22.5"/>
    <path d="m573.4 342.2-302.6-.2c-1.2 0-2.5-.2-3.6-.7-1.1-.5-2.2-1.2-3-2.1-.8-.9-1.5-2-1.9-3.2-.4-1.2-.5-2.4-.4-3.6l16.3-181.1c.3-2.6 1.5-5 3.5-6.8 2-1.8 4.5-2.7 7.1-2.8l302.6.3c1.2 0 2.5.2 3.6.7 1.1.5 2.2 1.2 3 2.1.8.9 1.5 2 1.9 3.2.4 1.2.5 2.4.4 3.6L584 332.7c-.3 2.6-1.5 5-3.5 6.8-1.9 1.7-4.5 2.7-7.1 2.7" clip-path="url(#SVGID_4_)" fill="#f0f0f0"/>
    <path class="st2" d="M563.9 537.4H436c-.9 0-1.9-.2-2.7-.5s-1.6-.9-2.3-1.6c-.6-.7-1.1-1.5-1.4-2.4-.3-.9-.4-1.8-.3-2.8l15.5-161.5c.2-2 1.2-3.9 2.7-5.2 1.5-1.4 3.4-2.1 5.4-2.2h127.9c.9 0 1.9.2 2.7.5.9.4 1.6.9 2.3 1.6.6.7 1.1 1.5 1.4 2.4.3.9.4 1.8.3 2.8L572 530c-.2 2-1.2 3.9-2.7 5.2-1.5 1.4-3.4 2.2-5.4 2.2"/>
    <path class="st3" d="M507.5 464.8c-10.5 0-20-4-27-11.3-7.2-7.5-10.7-17.7-9.9-28.5.8-10.6 5.6-20.7 13.6-28.4 16.7-15.9 42.3-16.4 57-1 7.2 7.5 10.7 17.7 9.9 28.5-.8 10.6-5.6 20.7-13.6 28.4-8 7.7-18.3 12-29 12.3h-1m6.6-68.8c-7.6 0-15.6 3-21.9 9-5.9 5.6-9.5 13-10 20.7-.5 7.5 1.9 14.5 6.7 19.6 4.9 5.1 11.7 7.8 19.3 7.7 7.7-.2 15.3-3.4 21.2-9 5.9-5.6 9.5-13 10-20.7.5-7.5-1.9-14.5-6.7-19.6-4.9-5.1-11.6-7.7-18.6-7.7"/>
    <path class="st11" d="M494.6 456.3c-12-5.2-19.5-17.4-18.2-31.8 1.8-19 18.7-34.4 37.7-34.4"/>
    <path class="st12" d="M491.7 485.9h26.4M488.9 515.7h26.3"/>
    <path class="st3" d="M530.7 503.6h-54.4c-1.7 0-3-1.3-3-3s1.3-3 3-3h54.4c1.7 0 3 1.3 3 3s-1.4 3-3 3M407.5 537.4H279.6c-.9 0-1.9-.2-2.7-.5-.9-.4-1.6-.9-2.3-1.6-.6-.7-1.1-1.5-1.4-2.4-.3-.9-.4-1.8-.3-2.8l15.5-161.5c.2-2 1.2-3.9 2.7-5.2 1.5-1.4 3.4-2.1 5.4-2.2h127.9c.9 0 1.9.2 2.7.5.9.4 1.6.9 2.3 1.6.6.7 1.1 1.5 1.4 2.4.3.9.4 1.8.3 2.8L415.6 530c-.2 2-1.2 3.9-2.7 5.2-1.5 1.4-3.4 2.2-5.4 2.2"/>
    <path class="st4" d="M351.1 464.8c-10.5 0-20-4-27-11.3-7.2-7.5-10.7-17.7-9.9-28.5.8-10.6 5.6-20.7 13.6-28.4 8-7.7 18.3-12 29-12.3 10.9-.3 20.8 3.8 28 11.3 7.2 7.5 10.7 17.7 9.9 28.5-.8 10.6-5.6 20.7-13.6 28.4-8 7.7-18.3 12-29 12.3h-1m6.6-68.8h-.7c-7.7.2-15.3 3.4-21.2 9-5.9 5.6-9.5 13-10 20.7-.5 7.5 1.9 14.5 6.7 19.6 4.9 5.1 11.7 7.9 19.3 7.7 7.7-.2 15.3-3.4 21.2-9 5.9-5.6 9.5-13 10-20.7.5-7.5-1.9-14.5-6.7-19.6-4.8-5-11.3-7.7-18.6-7.7"/>
    <path class="st11" d="M388.8 424.6c-1.8 19-18.7 34.4-37.7 34.4-19 0-32.9-15.4-31.1-34.4 1.8-19 18.7-34.4 37.7-34.4"/>
    <path class="st12" d="M335.3 485.9h26.4M332.5 515.7h26.3"/>
    <g class="st13">
      <defs>
        <path id="SVGID_5_" d="M316.9 497.6h60.4v6h-60.4z"/>
      </defs>
      <clipPath id="SVGID_6_">
        <use xlink:href="#SVGID_5_" overflow="visible"/>
      </clipPath>
      <path clip-path="url(#SVGID_6_)" fill="none" stroke="#fff" stroke-width="5.984" stroke-linecap="round" stroke-miterlimit="10" d="M319.9 500.6h54.4"/>
    </g>
    <path class="st4" d="M553.2 652.9H268.1c-.9 0-1.8-.2-2.6-.5-.8-.4-1.6-.9-2.2-1.5-.6-.7-1-1.4-1.3-2.3-.3-.9-.4-1.8-.2-2.6l8.5-88.5c.2-1.9 1.1-3.7 2.5-4.9s3.2-2 5.2-2.1h285c.9 0 1.8.2 2.6.5.8.4 1.6.9 2.2 1.5.6.7 1 1.4 1.3 2.3.3.9.4 1.8.2 2.6l-8.5 88.5c-.2 1.9-1.1 3.7-2.5 4.9-1.4 1.4-3.2 2.1-5.1 2.1"/>
    <path class="st11" d="m288 632.4 4-41.8M317.5 603.1l-2.8 29.3M343.2 613.1l-1.9 19.3M373.1 579.7l-5.1 52.7M396.6 613.1l-1.9 19.3M426.3 582.1l-4.9 50.3M450.1 611.5l-2 20.9M475.9 621.3l-1.1 11.1M505.5 590.6l-4 41.8M533.7 574.7l-5.5 57.7"/>
    <path class="st15" d="m295.4 314.5 16 25.1c.7 1.1 1 2.5.7 3.8-.3 1.3-1.1 2.5-2.2 3.2l-2.6 1.7c-4.3 2.8-9.5 4-14.7 3.2-5.1-.7-9.8-3.3-13.2-7.2l-21.3-24.8 37.3-5z"/>
    <path class="st16" d="M283.1 324.1s5.9 20.4 17.8 26.9c3.1-1.2 6.1-2.7 8.9-4.5L296.4 324"/>
    <path class="st15" d="M9.1 415.7 72 385.6c5.9-2.8 10.9-7.3 14.5-12.8l60.8-95.6c3.8-6 9.3-10.6 15.8-13.4l87.6-37.7L232 367.8l-.3 5.2s-23.2 60-79.9 81.8l-90.7 55.5-52-94.6z"/>
    <path class="st16" d="M237 252.2s-31 18.8-29.3 62.3l37.2-13.9-7.9-48.4z"/>
    <path class="st15" d="m314.8 314.5 16 25.1c.7 1.1 1 2.5.7 3.8-.3 1.3-1.1 2.5-2.2 3.2l-2.6 1.7c-4.3 2.8-9.5 4-14.7 3.2-5.1-.7-9.8-3.3-13.2-7.2l-21.3-24.8 37.3-5z"/>
    <path class="st4" d="m551.6 324.4-302.6-.3c-1.2 0-2.5-.2-3.6-.7-1.1-.5-2.2-1.2-3-2.1-.8-.9-1.5-2-1.9-3.2-.4-1.2-.5-2.4-.4-3.6l16.3-181.1c.3-2.6 1.5-5 3.5-6.8 2-1.8 4.5-2.7 7.1-2.8l302.6.3c1.2 0 2.5.2 3.6.7 1.1.5 2.2 1.2 3 2.1.8.9 1.5 2 1.9 3.2.4 1.2.5 2.4.4 3.6l-16.3 181.1c-.3 2.6-1.5 5-3.5 6.8-1.9 1.7-4.5 2.7-7.1 2.8"/>
    <path d="M269.1 231.3s27.2-5.5 34.5 7.3c7.3 12.7 13.6 36.7 33.1 33.6C356 269 370.9 206.5 390 207c19.1.6 12.4 41.6 33.2 42.1 20.8.6 17.1-22.9 31-22.2 16.8.8 10.6 49.4 32.5 50 21.9.6 25.5-64.2 58.7-63.1" clip-path="url(#SVGID_4_)" fill="none" stroke="#fff" stroke-width="7.565" stroke-linecap="round" stroke-miterlimit="10"/>
    <path clip-path="url(#SVGID_4_)" fill="none" stroke="#fff" stroke-width="11.999" stroke-linecap="round" stroke-miterlimit="10" d="M284.5 154.2h53.2"/>
    <g class="st13">
      <defs>
        <path id="SVGID_7_" d="M276.3 172.6h122v12.1h-122z"/>
      </defs>
      <clipPath id="SVGID_8_">
        <use xlink:href="#SVGID_7_" overflow="visible"/>
      </clipPath>
      <path clip-path="url(#SVGID_8_)" fill="none" stroke="#fff" stroke-width="11.999" stroke-linecap="round" stroke-miterlimit="10" d="m282.3 178.6 110 .1"/>
    </g>
    <path class="st15" d="m179.3 323.5 38.8-17.1 39.7-27.1c10.4-7.1 32.2-10.3 40.1-.4 8 10.1-1 30-10.7 38.5l-36.7 32-19.1 23.6-52.1-49.5z"/>
    <path class="st16" d="m277.4 314.9-.8-.2c-14.3-3.7-19.7-23.9-19.9-24.8l-.3-1.1 19.4-11.4c3-1.8 6.6-2.4 10.1-1.8 3.5.6 6.6 2.4 8.9 5.2 1.3 1.6 2.3 3.4 2.8 5.3.6 2 .7 4 .5 6-.2 2-.9 3.9-1.9 5.7-1 1.8-2.4 3.3-4 4.5l-14.8 12.6zM260 290.3c1.3 4 6.4 18.1 16.7 21.3l13.8-11.7c1.4-1 2.5-2.2 3.3-3.6.8-1.4 1.3-2.9 1.5-4.6.2-1.6.1-3.2-.4-4.8-.5-1.6-1.2-3-2.3-4.2-1.8-2.2-4.3-3.6-7.1-4.1-2.8-.5-5.7 0-8.1 1.5L260 290.3z"/>
    <path class="st4" d="M74.4 383.1s-7.5 53.8 57.9 84.6c0 0-47 43.1-65.2 50.4-18.1 7.3-86.2-66.9-62-108.9 6.8-11.9 69.3-26.1 69.3-26.1"/>
    <path class="st16" d="M322.4 326.4s-25.5.5-34.4 5.2l-6.4-7.5h39.3l1.5 2.3z"/>
    <path class="st3" d="M792.2 324.4H610.8c-13.7 0-23.8-11.1-22.6-24.7l24.3-274.9c1.3-13.7 13.3-24.8 27-24.8h181.4c13.7 0 23.8 11.1 22.5 24.7l-24.3 274.9c-1.2 13.7-13.3 24.8-26.9 24.8"/>
    <path class="st9" d="M766.2 155.2c28.7-27.5 31.6-71.1 6.5-97.4-25.2-26.3-68.8-25.3-97.6 2.2-28.7 27.5-31.6 71.1-6.5 97.4 25.2 26.3 68.9 25.3 97.6-2.2"/>
    <path class="st4" d="m727.5 30-6.5 73.1c-.1 1.3.1 2.7.7 3.9.6 1.2 1.6 2.2 2.7 2.8l61.8 34.4c.1-.1 36.8-102.4-58.7-114.2"/>
    <path class="st20" d="M630.8 227.1H706M625.3 289.2h75.2"/>
    <g class="st13">
      <defs>
        <path id="SVGID_9_" d="M622.1 251.8h167.3v12H622.1z"/>
      </defs>
      <clipPath id="SVGID_10_">
        <use xlink:href="#SVGID_9_" overflow="visible"/>
      </clipPath>
      <path clip-path="url(#SVGID_10_)" fill="none" stroke="#fff" stroke-width="12" stroke-linecap="round" stroke-miterlimit="10" d="M628.1 257.8h155.3"/>
    </g>
    <path class="st15" d="M569.1 526.9s24.2-6.5 37.1 7.4c0 0 23.2-4.2 32.6 8.7 0 0 20.5 1.2 26.5 9.6 4.9.7 9.6 2.7 13.6 5.7 3.9 3.1 7 7.1 8.8 11.8 5.6 13.2.9 89.8-4.7 117.2-1.4 6.9-.9 14 1.4 20.6l14.2 40.8-98.3 41.1-23.3-60.9s-28.4-45.6-32.5-53.8c-4.1-8.1 2.8-75.4-11-117.5l35.6-30.7z"/>
    <path class="st4" d="M589.6 762s61.7 5.6 99.2-41.3c0 0 13.8 7.3 35.1 60.3 6.5 16.3-102.4 74.4-120 50.2-.1 0-15.3-32.1-14.3-69.2"/>
    <path class="st15" d="M539.5 583s-2.1 11.3-12.2 11.3c-6.6 0-35-8.6-54-14.6-5.2-1.6-10.7-1.6-15.9 0-5.2 1.6-9.7 4.8-13 9.1l-1.2 1.5c-.6.7-1 1.6-1.2 2.5-.2.9-.3 1.9-.1 2.8.1.9.5 1.8 1 2.6s1.1 1.5 1.9 2c16.1 11.2 59.5 41.7 65.1 47.3 6.8 6.8 44.9 45.2 44.9 45.2L539.5 583z"/>
    <path class="st16" d="M537.2 571.7s20.6 27.9 17.5 33.9c-3 6.1-35-12.5-35-12.5s25.8 6.6 17.5-21.4"/>
    <path class="st15" d="m533.4 557.6-34.6-105.1c-1.2-3.6-1.6-7.4-1.3-11.2.3-3.8 1.4-7.5 3.1-10.8 1.8-3.4 4.2-6.3 7.1-8.8 2.9-2.4 6.3-4.2 10-5.3 3-.9 6.2-.6 9 .7 2.8 1.3 5.1 3.6 6.3 6.5l48.6 111.7-48.2 22.3z"/>
    <path class="st16" d="M527.4 519.8h-.3c-2.1-.4-4-1.2-5.7-2.5-1.7-1.2-3.2-2.7-4.2-4.5-.4-.7-.2-1.6.5-2.1.7-.4 1.6-.2 2.1.5.9 1.4 2 2.7 3.4 3.6 1.4 1 2.9 1.6 4.6 2 .8.2 1.3 1 1.2 1.8-.3.8-.9 1.2-1.6 1.2M527.4 460.5c-1.3 0-2.5-.2-3.7-.7-1.3-.5-2.4-1.2-3.3-2.2-1-1-1.7-2.1-2.2-3.3l-8.8-22v-.3c.3-7.4 6.5-12.6 11.6-15.5.8-.5 1.7-.7 2.6-.8.9-.1 1.9 0 2.7.3.9.3 1.7.8 2.4 1.4.7.6 1.2 1.4 1.6 2.3l13.2 31.3-.4.7c-1.8 2.8-5.7 5.5-11.5 8.1-1.2.6-2.5.8-3.9.9-.2-.2-.2-.2-.3-.2m-15.1-28.8 8.6 21.4c.4.9.9 1.7 1.5 2.3.7.7 1.5 1.2 2.3 1.5.9.4 1.8.5 2.8.5.9 0 1.9-.2 2.7-.6 4.7-2.1 8.1-4.3 9.8-6.4l-12.6-29.8c-.2-.5-.5-.9-.9-1.2-.4-.3-.8-.6-1.3-.8-.5-.2-1-.2-1.5-.2s-1 .2-1.4.5c-4.3 2.6-9.6 6.9-10 12.8M589.6 554c-.6 0-1.1-.3-1.4-.9l-11.9-26.3c-.3-.8 0-1.6.7-2 .8-.3 1.6 0 2 .7l11.9 26.3c.3.8 0 1.6-.7 2-.2.2-.4.2-.6.2M616 566c-.8 0-1.5-.7-1.5-1.5 0-10.3-3.1-20.3-9-28.8-.5-.7-.3-1.6.4-2.1s1.6-.3 2.1.4c6.3 9 9.6 19.5 9.6 30.5-.1.8-.8 1.5-1.6 1.5M645.9 569.6c-.8 0-1.5-.6-1.5-1.4-.5-10.5-6.3-24-6.4-24.1-.3-.8 0-1.6.8-2 .8-.3 1.6 0 2 .8.3.6 6.1 14.2 6.6 25.2 0 .8-.7 1.5-1.5 1.5M668.8 573.2h-.1c-.8-.1-1.4-.8-1.3-1.6.6-6-.3-12.1-2.6-17.7-.3-.8.1-1.6.8-2 .8-.3 1.6.1 2 .8 2.4 6 3.4 12.6 2.8 19.1-.2.8-.8 1.4-1.6 1.4M470.4 615.1l-24.8-16.3c-.7-.4-1.2-1-1.6-1.8-.4-.7-.5-1.5-.5-2.3 0-.8.3-1.6.7-2.3.4-.7 1-1.2 1.7-1.6 2.8-1.5 5.8-2.6 9-3.1 6.8-.8 18.4 5.9 21.1 11 2.8 5.2-4 14.2-4.8 15.2l-.8 1.2zm-14.2-24.3h-.8c-2.8.4-5.5 1.3-8 2.7-.3.1-.5.3-.6.6-.2.2-.2.5-.3.8 0 .3 0 .6.2.8.1.2.3.5.6.6l22.5 14.8c2.4-3.3 5-8.4 3.7-10.8-2.2-4-11.6-9.5-17.3-9.5"/>
    <path class="st6" d="M347.8 723.2H131.2c-.9 0-1.8-.2-2.6-.5-.8-.4-1.6-.9-2.2-1.5-.6-.7-1.1-1.4-1.3-2.3-.3-.9-.4-1.8-.2-2.6l8.5-88.5c.2-1.9 1.1-3.7 2.5-4.9 1.4-1.3 3.2-2 5.2-2.1h216.6c.9 0 1.8.2 2.6.5.8.4 1.6.9 2.2 1.5.6.7 1 1.4 1.3 2.3.3.9.4 1.8.2 2.6l-8.5 88.5c-.2 1.9-1.1 3.7-2.5 4.9-1.4 1.4-3.2 2.1-5.2 2.1"/>
    <path class="st4" d="M285.2 649.7H151.6c-3.2 0-5.8-2.6-5.8-5.8 0-3.2 2.6-5.8 5.8-5.8h133.7c3.2 0 5.8 2.6 5.8 5.8 0 3.2-2.6 5.8-5.9 5.8"/>
    <path class="st11" d="M151.6 643.8h92.9"/>
    <path class="st4" d="M283.2 677.8H149.6c-3.2 0-5.8-2.6-5.8-5.8 0-3.2 2.6-5.8 5.8-5.8h133.7c3.2 0 5.8 2.6 5.8 5.8 0 3.2-2.6 5.8-5.9 5.8"/>
    <path class="st11" d="M149.6 672h55.5"/>
    <path class="st4" d="M278.9 706H145.2c-3.2 0-5.8-2.6-5.8-5.8 0-3.2 2.6-5.8 5.8-5.8h133.7c3.2 0 5.8 2.6 5.8 5.8 0 3.2-2.6 5.8-5.8 5.8"/>
    <path class="st11" d="M145.2 700.2h34"/>
    <path class="st9" d="M332.6 651.8c4.4 0 8-3.6 8-8s-3.6-8-8-8-8 3.6-8 8 3.6 8 8 8M330 678.7c4.4 0 8-3.6 8-8s-3.6-8-8-8-8 3.6-8 8c0 4.5 3.6 8 8 8M327.1 708.1c4.4 0 8-3.6 8-8s-3.6-8-8-8-8 3.6-8 8c0 4.5 3.6 8 8 8"/>
  </g>
</svg>
