<?xml version="1.0" encoding="utf-8"?>
<!-- Generator: Adobe Illustrator 17.0.0, SVG Export Plug-In . SVG Version: 6.00 Build 0)  -->
<!DOCTYPE svg PUBLIC "-//W3C//DTD SVG 1.1//EN" "http://www.w3.org/Graphics/SVG/1.1/DTD/svg11.dtd">
<svg version="1.1" xmlns="http://www.w3.org/2000/svg" xmlns:xlink="http://www.w3.org/1999/xlink" x="0px" y="0px" width="500px"
	 height="500px" viewBox="0 0 500 500" enable-background="new 0 0 500 500" xml:space="preserve">
<g id="BACKGROUND">
</g>
<g id="OBJECT">
	<g>
		<ellipse fill="#0070B5" cx="244.883" cy="447.684" rx="156.836" ry="9.596"/>
		<g>
			<path fill="#027BD8" d="M198.26,118.89V98.494h-34.801V91.81l33.418-47.822h10.947v46.555h10.486v7.951h-10.486v20.396H198.26z
				 M198.26,90.543V65.537c0-3.918,0.115-7.836,0.346-11.754h-0.346c-2.305,4.379-4.148,7.605-6.223,11.063l-18.322,25.467v0.23
				H198.26z"/>
			<path fill="#027BD8" d="M275.813,80.633c0,25.467-9.449,39.525-26.043,39.525c-14.635,0-24.545-13.713-24.775-38.488
				c0-25.121,10.832-38.949,26.043-38.949C266.824,42.72,275.813,56.779,275.813,80.633z M235.135,81.785
				c0,19.475,5.992,30.537,15.211,30.537c10.371,0,15.326-12.1,15.326-31.229c0-18.438-4.725-30.537-15.211-30.537
				C241.588,50.556,235.135,61.388,235.135,81.785z"/>
			<path fill="#027BD8" d="M316.49,118.89V98.494h-34.801V91.81l33.418-47.822h10.947v46.555h10.486v7.951h-10.486v20.396H316.49z
				 M316.49,90.543V65.537c0-3.918,0.115-7.836,0.346-11.754h-0.346c-2.305,4.379-4.148,7.605-6.223,11.063l-18.322,25.467v0.23
				H316.49z"/>
		</g>
		<g>
			<path fill="#606060" d="M46.605,131.714h-4.503v-1.626h10.961v1.626h-4.525v13.18h-1.933V131.714z"/>
			<path fill="#606060" d="M54.489,129.298h1.933v6.634h0.044c0.307-0.549,0.791-1.033,1.383-1.362
				c0.571-0.33,1.253-0.55,1.977-0.55c1.428,0,3.712,0.879,3.712,4.547v6.326h-1.933v-6.106c0-1.714-0.637-3.163-2.46-3.163
				c-1.252,0-2.24,0.879-2.592,1.933c-0.11,0.263-0.132,0.549-0.132,0.922v6.414h-1.933V129.298z"/>
			<path fill="#606060" d="M67.755,139.929c0.044,2.614,1.714,3.69,3.647,3.69c1.384,0,2.218-0.241,2.944-0.549l0.329,1.384
				c-0.681,0.308-1.845,0.659-3.536,0.659c-3.273,0-5.228-2.153-5.228-5.36c0-3.207,1.889-5.733,4.986-5.733
				c3.471,0,4.393,3.054,4.393,5.008c0,0.396-0.044,0.703-0.065,0.9H67.755z M73.422,138.546c0.022-1.23-0.505-3.141-2.68-3.141
				c-1.955,0-2.812,1.802-2.965,3.141H73.422z"/>
			<path fill="#606060" d="M82.404,130.264c0.923-0.153,2.131-0.285,3.669-0.285c1.889,0,3.273,0.439,4.152,1.23
				c0.813,0.703,1.296,1.78,1.296,3.097c0,1.34-0.396,2.395-1.142,3.163c-1.011,1.077-2.658,1.626-4.525,1.626
				c-0.571,0-1.098-0.022-1.537-0.132v5.931h-1.911V130.264z M84.315,137.403c0.418,0.11,0.945,0.154,1.582,0.154
				c2.306,0,3.712-1.12,3.712-3.163c0-1.955-1.384-2.9-3.493-2.9c-0.834,0-1.472,0.066-1.801,0.154V137.403z"/>
			<path fill="#606060" d="M99.338,144.894l-0.153-1.34h-0.066c-0.593,0.834-1.736,1.582-3.251,1.582
				c-2.153,0-3.251-1.516-3.251-3.054c0-2.57,2.285-3.976,6.392-3.954v-0.219c0-0.879-0.242-2.46-2.417-2.46
				c-0.988,0-2.021,0.307-2.768,0.79l-0.439-1.274c0.879-0.571,2.152-0.945,3.492-0.945c3.251,0,4.042,2.218,4.042,4.35v3.976
				c0,0.922,0.044,1.823,0.176,2.548H99.338z M99.053,139.468c-2.109-0.044-4.503,0.33-4.503,2.394c0,1.253,0.834,1.846,1.823,1.846
				c1.383,0,2.262-0.879,2.57-1.78c0.066-0.198,0.11-0.418,0.11-0.615V139.468z"/>
			<path fill="#606060" d="M113.197,134.262c-0.044,0.769-0.088,1.625-0.088,2.921v6.173c0,2.438-0.483,3.932-1.516,4.854
				c-1.032,0.967-2.526,1.274-3.866,1.274c-1.274,0-2.68-0.307-3.536-0.879l0.483-1.472c0.703,0.44,1.802,0.835,3.12,0.835
				c1.977,0,3.427-1.033,3.427-3.712v-1.187h-0.044c-0.593,0.989-1.735,1.779-3.383,1.779c-2.636,0-4.525-2.24-4.525-5.184
				c0-3.603,2.351-5.646,4.789-5.646c1.845,0,2.856,0.967,3.317,1.845h0.044l0.088-1.603H113.197z M111.198,138.458
				c0-0.33-0.022-0.615-0.11-0.879c-0.351-1.12-1.296-2.043-2.702-2.043c-1.845,0-3.163,1.56-3.163,4.02
				c0,2.087,1.054,3.823,3.141,3.823c1.187,0,2.263-0.747,2.68-1.977c0.11-0.329,0.154-0.703,0.154-1.032V138.458z"/>
			<path fill="#606060" d="M117.39,139.929c0.044,2.614,1.714,3.69,3.647,3.69c1.384,0,2.218-0.241,2.944-0.549l0.329,1.384
				c-0.68,0.308-1.845,0.659-3.536,0.659c-3.273,0-5.228-2.153-5.228-5.36c0-3.207,1.889-5.733,4.986-5.733
				c3.471,0,4.393,3.054,4.393,5.008c0,0.396-0.044,0.703-0.065,0.9H117.39z M123.058,138.546c0.022-1.23-0.505-3.141-2.68-3.141
				c-1.955,0-2.812,1.802-2.965,3.141H123.058z"/>
			<path fill="#606060" d="M134.324,144.894v-6.282l-4.679-8.524h2.175l2.087,4.086c0.571,1.12,1.01,2.021,1.471,3.054h0.044
				c0.418-0.967,0.923-1.933,1.494-3.054l2.131-4.086h2.175l-4.965,8.501v6.305H134.324z"/>
			<path fill="#606060" d="M150.797,139.49c0,3.932-2.724,5.645-5.294,5.645c-2.878,0-5.096-2.109-5.096-5.47
				c0-3.559,2.328-5.646,5.272-5.646C148.732,134.02,150.797,136.239,150.797,139.49z M142.362,139.6
				c0,2.328,1.34,4.085,3.229,4.085c1.846,0,3.229-1.735,3.229-4.13c0-1.801-0.9-4.085-3.185-4.085S142.362,137.579,142.362,139.6z"
				/>
			<path fill="#606060" d="M162.13,141.994c0,1.098,0.022,2.065,0.087,2.9h-1.713l-0.11-1.736h-0.044
				c-0.505,0.857-1.625,1.977-3.515,1.977c-1.669,0-3.668-0.923-3.668-4.657v-6.217h1.933v5.887c0,2.021,0.614,3.383,2.372,3.383
				c1.296,0,2.197-0.901,2.549-1.757c0.11-0.286,0.176-0.637,0.176-0.989v-6.524h1.933V141.994z"/>
			<path fill="#606060" d="M170.056,130.286c0.967-0.198,2.351-0.308,3.669-0.308c2.043,0,3.361,0.374,4.283,1.208
				c0.747,0.659,1.165,1.669,1.165,2.812c0,1.955-1.23,3.251-2.79,3.778v0.066c1.142,0.395,1.823,1.449,2.175,2.987
				c0.483,2.065,0.834,3.492,1.142,4.064h-1.977c-0.242-0.418-0.571-1.691-0.988-3.536c-0.439-2.043-1.23-2.812-2.966-2.878h-1.801
				v6.414h-1.911V130.286z M171.968,137.03h1.955c2.043,0,3.339-1.12,3.339-2.812c0-1.911-1.384-2.746-3.405-2.768
				c-0.922,0-1.582,0.088-1.889,0.176V137.03z"/>
			<path fill="#606060" d="M182.971,139.929c0.044,2.614,1.713,3.69,3.646,3.69c1.384,0,2.218-0.241,2.943-0.549l0.33,1.384
				c-0.681,0.308-1.845,0.659-3.536,0.659c-3.273,0-5.228-2.153-5.228-5.36c0-3.207,1.889-5.733,4.987-5.733
				c3.471,0,4.393,3.054,4.393,5.008c0,0.396-0.044,0.703-0.066,0.9H182.971z M188.638,138.546c0.022-1.23-0.505-3.141-2.68-3.141
				c-1.956,0-2.812,1.802-2.966,3.141H188.638z"/>
			<path fill="#606060" d="M200.147,143.246h-0.044c-0.571,1.054-1.757,1.889-3.47,1.889c-2.483,0-4.503-2.153-4.503-5.382
				c0-3.976,2.57-5.733,4.81-5.733c1.648,0,2.746,0.813,3.273,1.845h0.044l0.066-1.603h1.823c-0.044,0.9-0.066,1.823-0.066,2.921
				v12.06h-1.933V143.246z M200.147,138.568c0-0.264-0.022-0.571-0.088-0.813c-0.286-1.187-1.318-2.197-2.768-2.197
				c-1.998,0-3.207,1.691-3.207,4.085c0,2.109,1.01,3.954,3.141,3.954c1.252,0,2.328-0.768,2.767-2.109
				c0.088-0.264,0.154-0.637,0.154-0.922V138.568z"/>
			<path fill="#606060" d="M214.159,141.994c0,1.098,0.022,2.065,0.087,2.9h-1.713l-0.11-1.736h-0.044
				c-0.505,0.857-1.625,1.977-3.515,1.977c-1.669,0-3.668-0.923-3.668-4.657v-6.217h1.933v5.887c0,2.021,0.614,3.383,2.372,3.383
				c1.296,0,2.197-0.901,2.549-1.757c0.11-0.286,0.176-0.637,0.176-0.989v-6.524h1.933V141.994z"/>
			<path fill="#606060" d="M218.44,139.929c0.044,2.614,1.713,3.69,3.646,3.69c1.384,0,2.218-0.241,2.943-0.549l0.33,1.384
				c-0.681,0.308-1.845,0.659-3.536,0.659c-3.273,0-5.228-2.153-5.228-5.36c0-3.207,1.889-5.733,4.987-5.733
				c3.471,0,4.393,3.054,4.393,5.008c0,0.396-0.044,0.703-0.066,0.9H218.44z M224.107,138.546c0.022-1.23-0.505-3.141-2.68-3.141
				c-1.956,0-2.812,1.802-2.966,3.141H224.107z"/>
			<path fill="#606060" d="M228.104,142.917c0.571,0.374,1.582,0.769,2.548,0.769c1.407,0,2.065-0.703,2.065-1.582
				c0-0.922-0.548-1.428-1.977-1.955c-1.911-0.681-2.812-1.736-2.812-3.009c0-1.714,1.383-3.12,3.669-3.12
				c1.076,0,2.02,0.308,2.614,0.659l-0.484,1.406c-0.418-0.264-1.187-0.615-2.175-0.615c-1.142,0-1.78,0.659-1.78,1.449
				c0,0.879,0.638,1.274,2.022,1.802c1.846,0.703,2.789,1.625,2.789,3.207c0,1.867-1.449,3.186-3.976,3.186
				c-1.164,0-2.241-0.286-2.987-0.725L228.104,142.917z"/>
			<path fill="#606060" d="M239.393,131.209v3.054h2.768v1.472h-2.768v5.733c0,1.318,0.373,2.065,1.449,2.065
				c0.506,0,0.879-0.066,1.12-0.132l0.088,1.449c-0.374,0.154-0.967,0.264-1.714,0.264c-0.901,0-1.626-0.286-2.088-0.813
				c-0.548-0.571-0.747-1.516-0.747-2.767v-5.799h-1.648v-1.472h1.648v-2.548L239.393,131.209z"/>
			<path fill="#606060" d="M245.278,139.929c0.044,2.614,1.714,3.69,3.647,3.69c1.383,0,2.218-0.241,2.944-0.549l0.329,1.384
				c-0.68,0.308-1.845,0.659-3.536,0.659c-3.274,0-5.228-2.153-5.228-5.36c0-3.207,1.888-5.733,4.987-5.733
				c3.47,0,4.393,3.054,4.393,5.008c0,0.396-0.045,0.703-0.066,0.9H245.278z M250.945,138.546c0.022-1.23-0.505-3.141-2.68-3.141
				c-1.954,0-2.812,1.802-2.965,3.141H250.945z"/>
			<path fill="#606060" d="M264.388,129.298v12.85c0,0.944,0.022,2.021,0.087,2.746h-1.735l-0.087-1.845h-0.045
				c-0.593,1.187-1.889,2.087-3.624,2.087c-2.57,0-4.547-2.175-4.547-5.404c-0.022-3.536,2.175-5.711,4.766-5.711
				c1.626,0,2.724,0.769,3.208,1.626h0.044v-6.348H264.388z M262.455,138.589c0-0.242-0.022-0.571-0.088-0.813
				c-0.285-1.23-1.34-2.241-2.789-2.241c-1.999,0-3.186,1.757-3.186,4.108c0,2.153,1.054,3.932,3.142,3.932
				c1.296,0,2.481-0.857,2.833-2.306c0.066-0.264,0.088-0.527,0.088-0.835V138.589z"/>
			<path fill="#606060" d="M282.661,144.411c-0.703,0.351-2.109,0.703-3.91,0.703c-4.174,0-7.316-2.636-7.316-7.491
				c0-4.634,3.142-7.776,7.732-7.776c1.846,0,3.01,0.395,3.515,0.659l-0.461,1.56c-0.724-0.351-1.757-0.615-2.987-0.615
				c-3.47,0-5.777,2.218-5.777,6.107c0,3.624,2.086,5.952,5.69,5.952c1.164,0,2.351-0.242,3.12-0.615L282.661,144.411z"/>
			<path fill="#606060" d="M294.366,139.49c0,3.932-2.723,5.645-5.293,5.645c-2.878,0-5.096-2.109-5.096-5.47
				c0-3.559,2.328-5.646,5.272-5.646C292.302,134.02,294.366,136.239,294.366,139.49z M285.931,139.6
				c0,2.328,1.34,4.085,3.229,4.085c1.846,0,3.229-1.735,3.229-4.13c0-1.801-0.901-4.085-3.184-4.085
				C286.92,135.47,285.931,137.579,285.931,139.6z"/>
			<path fill="#606060" d="M305.699,141.994c0,1.098,0.021,2.065,0.087,2.9h-1.712l-0.111-1.736h-0.044
				c-0.505,0.857-1.625,1.977-3.515,1.977c-1.669,0-3.668-0.923-3.668-4.657v-6.217h1.933v5.887c0,2.021,0.614,3.383,2.372,3.383
				c1.296,0,2.197-0.901,2.549-1.757c0.11-0.286,0.176-0.637,0.176-0.989v-6.524h1.933V141.994z"/>
			<path fill="#606060" d="M308.905,129.298h1.933v15.596h-1.933V129.298z"/>
			<path fill="#606060" d="M323.269,129.298v12.85c0,0.944,0.021,2.021,0.087,2.746h-1.735l-0.089-1.845h-0.044
				c-0.593,1.187-1.888,2.087-3.624,2.087c-2.57,0-4.547-2.175-4.547-5.404c-0.022-3.536,2.175-5.711,4.766-5.711
				c1.626,0,2.724,0.769,3.208,1.626h0.044v-6.348H323.269z M321.336,138.589c0-0.242-0.022-0.571-0.088-0.813
				c-0.285-1.23-1.34-2.241-2.789-2.241c-1.999,0-3.186,1.757-3.186,4.108c0,2.153,1.054,3.932,3.142,3.932
				c1.296,0,2.481-0.857,2.833-2.306c0.066-0.264,0.088-0.527,0.088-0.835V138.589z"/>
			<path fill="#606060" d="M331.197,144.894v-14.806h2.086l4.745,7.491c1.098,1.736,1.956,3.295,2.658,4.81l0.044-0.022
				c-0.176-1.977-0.221-3.778-0.221-6.085v-6.195h1.802v14.806h-1.933l-4.701-7.512c-1.032-1.648-2.02-3.339-2.768-4.943
				l-0.066,0.022c0.111,1.867,0.155,3.646,0.155,6.106v6.326H331.197z"/>
			<path fill="#606060" d="M355.202,139.49c0,3.932-2.723,5.645-5.293,5.645c-2.878,0-5.096-2.109-5.096-5.47
				c0-3.559,2.328-5.646,5.272-5.646C353.139,134.02,355.202,136.239,355.202,139.49z M346.767,139.6
				c0,2.328,1.34,4.085,3.229,4.085c1.846,0,3.229-1.735,3.229-4.13c0-1.801-0.901-4.085-3.184-4.085
				C347.756,135.47,346.767,137.579,346.767,139.6z"/>
			<path fill="#606060" d="M359.967,131.209v3.054h2.768v1.472h-2.768v5.733c0,1.318,0.374,2.065,1.449,2.065
				c0.505,0,0.879-0.066,1.12-0.132l0.087,1.449c-0.373,0.154-0.966,0.264-1.712,0.264c-0.901,0-1.625-0.286-2.088-0.813
				c-0.548-0.571-0.747-1.516-0.747-2.767v-5.799h-1.648v-1.472h1.648v-2.548L359.967,131.209z"/>
			<path fill="#606060" d="M369.631,130.286c0.834-0.176,2.152-0.308,3.492-0.308c1.911,0,3.141,0.33,4.063,1.077
				c0.769,0.571,1.231,1.449,1.231,2.614c0,1.428-0.945,2.68-2.505,3.251v0.044c1.406,0.351,3.054,1.516,3.054,3.712
				c0,1.274-0.505,2.24-1.251,2.966c-1.033,0.945-2.702,1.383-5.119,1.383c-1.319,0-2.328-0.087-2.965-0.176V130.286z
				 M371.542,136.349h1.735c2.022,0,3.207-1.054,3.207-2.482c0-1.736-1.317-2.417-3.25-2.417c-0.879,0-1.383,0.066-1.691,0.132
				V136.349z M371.542,143.444c0.373,0.066,0.922,0.089,1.604,0.089c1.977,0,3.8-0.725,3.8-2.878c0-2.021-1.736-2.856-3.823-2.856
				h-1.582V143.444z"/>
			<path fill="#606060" d="M382.632,139.929c0.044,2.614,1.714,3.69,3.647,3.69c1.383,0,2.218-0.241,2.944-0.549l0.329,1.384
				c-0.681,0.308-1.845,0.659-3.536,0.659c-3.274,0-5.228-2.153-5.228-5.36c0-3.207,1.888-5.733,4.987-5.733
				c3.47,0,4.393,3.054,4.393,5.008c0,0.396-0.045,0.703-0.066,0.9H382.632z M388.299,138.546c0.022-1.23-0.505-3.141-2.68-3.141
				c-1.954,0-2.812,1.802-2.965,3.141H388.299z"/>
			<path fill="#606060" d="M397.28,130.088h7.974v1.604h-6.062v4.921h5.601v1.582h-5.601v6.7h-1.912V130.088z"/>
			<path fill="#606060" d="M416.851,139.49c0,3.932-2.723,5.645-5.293,5.645c-2.878,0-5.096-2.109-5.096-5.47
				c0-3.559,2.328-5.646,5.272-5.646C414.787,134.02,416.851,136.239,416.851,139.49z M408.416,139.6
				c0,2.328,1.34,4.085,3.229,4.085c1.846,0,3.229-1.735,3.229-4.13c0-1.801-0.901-4.085-3.184-4.085
				C409.404,135.47,408.416,137.579,408.416,139.6z"/>
			<path fill="#606060" d="M428.184,141.994c0,1.098,0.021,2.065,0.087,2.9h-1.712l-0.111-1.736h-0.044
				c-0.505,0.857-1.625,1.977-3.515,1.977c-1.669,0-3.668-0.923-3.668-4.657v-6.217h1.933v5.887c0,2.021,0.614,3.383,2.372,3.383
				c1.296,0,2.197-0.901,2.549-1.757c0.11-0.286,0.176-0.637,0.176-0.989v-6.524h1.933V141.994z"/>
			<path fill="#606060" d="M431.39,137.14c0-1.099-0.022-1.999-0.088-2.878h1.714l0.11,1.757h0.044
				c0.527-1.011,1.757-1.999,3.515-1.999c1.472,0,3.756,0.879,3.756,4.525v6.348h-1.933v-6.129c0-1.713-0.637-3.141-2.46-3.141
				c-1.274,0-2.262,0.9-2.592,1.977c-0.087,0.242-0.131,0.571-0.131,0.9v6.392h-1.933V137.14z"/>
			<path fill="#606060" d="M452.761,129.298v12.85c0,0.944,0.021,2.021,0.087,2.746h-1.735l-0.088-1.845h-0.044
				c-0.593,1.187-1.888,2.087-3.624,2.087c-2.57,0-4.547-2.175-4.547-5.404c-0.022-3.536,2.175-5.711,4.766-5.711
				c1.626,0,2.724,0.769,3.208,1.626h0.044v-6.348H452.761z M450.827,138.589c0-0.242-0.022-0.571-0.089-0.813
				c-0.285-1.23-1.34-2.241-2.789-2.241c-1.999,0-3.186,1.757-3.186,4.108c0,2.153,1.054,3.932,3.142,3.932
				c1.296,0,2.481-0.857,2.833-2.306c0.066-0.264,0.089-0.527,0.089-0.835V138.589z"/>
			<path fill="#606060" d="M455.284,143.752c0-0.813,0.548-1.384,1.317-1.384c0.769,0,1.296,0.571,1.296,1.384
				c0,0.791-0.505,1.384-1.319,1.384C455.81,145.136,455.284,144.542,455.284,143.752z"/>
		</g>
		<g>
			<g>
				<g>
					<path fill="#3C2A34" d="M224.083,203.277l-23.707-37.892c0,0-18.521,3.999-17.613,41.462L224.083,203.277z"/>
					<path fill="#027BD8" d="M214.457,205.372l-14.963-29.186c0,0-13.834,8.582-13.098,30.346L214.457,205.372z"/>
					<path fill="#FBE4D3" d="M207.037,200.778c0,0-0.937-11.482-11.489-13.608l4.062,7.599c0,0-2.294-1.415-6.711-0.795
						c0,0,5.124,4.055,5.479,8.434c0,0,1.59-4.419-2.299-7.619c0,0,4.242,1.218,5.126,2.808c0,0,0-4.771-2.827-7.6
						C198.376,189.996,204.031,192.648,207.037,200.778z"/>
				</g>
				<g>
					<path fill="#3C2A34" d="M279.486,203.277l23.707-37.892c0,0,18.521,3.999,17.613,41.462L279.486,203.277z"/>
					<path fill="#027BD8" d="M289.113,205.372l14.963-29.186c0,0,13.834,8.582,13.098,30.346L289.113,205.372z"/>
					<path fill="#FBE4D3" d="M296.533,200.778c0,0,0.938-11.482,11.489-13.608l-4.062,7.599c0,0,2.295-1.415,6.711-0.795
						c0,0-5.124,4.055-5.478,8.434c0,0-1.59-4.419,2.299-7.619c0,0-4.242,1.218-5.126,2.808c0,0,0-4.771,2.827-7.6
						C305.193,189.996,299.539,192.648,296.533,200.778z"/>
				</g>
			</g>
			<path fill="#2F9DE0" d="M182.976,206.847c0,0-46.819,67.77-37.901,86.172c8.916,18.404,106.385,109.398,106.385,109.398
				s107.798-105.419,107.798-127.926c0-22.507-38.451-67.645-38.451-67.645S245.46,191.36,182.976,206.847z"/>
			<path fill="#2F9DE0" d="M153.35,448.818c0,0-62.474-53.662-1.134-189.156c21.709-47.955,188.267-35.589,199.361-9.342
				c55.299,130.836,7.68,198.498,7.68,198.498H153.35z"/>
			<path fill="#027BD8" d="M152.207,259.683c0,0-16.463,211.81,226.103,110.642c0,0,2.804,45.073-19.053,78.493H145.075
				C145.075,448.818,96.537,371.71,152.207,259.683z"/>
			<polygon fill="#3C2A34" points="251.085,236.777 251.085,279.944 241.982,297.378 253.782,282.479 264.403,297.378 
				255.403,278.358 253.782,235.245 			"/>
			<path fill="#FFFAEF" d="M321.208,350.516c0,0,5.857,38.936-9.98,51.901c0,0,1.354-10.337,0-21.357
				c0,0-9.857,29.914-39.771,34.951c0,0,20.782,6.297,37.472-24.875c0,0,1.258,14.484,0,19.207
				C308.929,410.343,332.86,395.543,321.208,350.516z"/>
			<path fill="#FFFAEF" d="M310.581,285.581c0,0,4.099,39.16-12.308,51.398c0,0,1.818-10.266,0.962-21.335
				c0,0-11.193,29.439-41.305,33.125c0,0,20.478,7.226,38.554-23.163c0,0,0.605,14.527-0.864,19.188
				C295.62,344.795,320.193,331.087,310.581,285.581z"/>
			<path fill="#FFFAEF" d="M177.258,350.516c0,0-5.858,38.936,9.979,51.901c0,0-1.354-10.337,0-21.357
				c0,0,9.857,29.914,39.77,34.951c0,0-20.781,6.297-37.469-24.875c0,0-1.26,14.484,0,19.207
				C189.539,410.343,165.607,395.543,177.258,350.516z"/>
			<path fill="#FFFAEF" d="M160.269,288.108c0,0-24.803,37.895-18.016,57.917c0,0,4.123-11.271,10.887-22.124
				c0,0-6.912,35.09,15.819,52.757c0,0-20.786-2.126-19.011-41.362c0,0-8.449,14.48-9.791,19.896
				C140.158,355.191,127.462,329.901,160.269,288.108z"/>
			<path fill="#FFFAEF" d="M196.775,304.152c0,0,15.172,33.059,46.609,46.009l-18.329-23.004c0,0,26.574,18.232,45.326,9.371
				c0,0-15.734,12.27-34.104-1.021l10.937,18.744C247.214,354.25,210.052,345.409,196.775,304.152z"/>
			<path fill="#027BD8" d="M149.788,448.724c0,0,13.407-72.099-27.829-86.364c-31.196-10.792-46.342-47.852-16.471-70.528
				c0,0-65.314,7.256-34.076,87.185L58.349,362.36C58.349,362.36,30.947,452.112,149.788,448.724z"/>
			<path fill="#FFFAEF" d="M82.328,332.382c0,0-5.857,38.936,9.98,51.901c0,0-1.354-10.337,0-21.357c0,0,9.857,29.914,39.77,34.951
				c0,0-20.781,6.297-37.47-24.875c0,0-1.26,14.484,0,19.207C94.608,392.209,70.677,377.409,82.328,332.382z"/>
			<path fill="#3C2A34" d="M281.01,273.755c0,0-17.297-42.955-31.528-39.346c-13.511,3.427-26.923,40.709-26.923,40.709
				s13.53-46.815,29.874-45.842C268.779,230.25,281.01,273.755,281.01,273.755z"/>
			<g>
				<polygon fill="#3C2A34" points="242.883,209.182 242.201,228.096 189.036,228.096 239.837,225.369 				"/>
				<polygon fill="#3C2A34" points="260.689,209.182 261.369,228.096 314.534,228.096 263.733,225.369 				"/>
			</g>
			<g>
				<path fill="#E76650" d="M242.853,233.942c0,0,5.409,14.243,9.674,13.651c5.403-0.75,9.114-13.356,9.114-13.356
					S253.192,222.057,242.853,233.942z"/>
				<path fill="#FBE4D3" d="M250.985,244.472c0,0-0.392-8.326-3.773-8.324C247.212,236.148,250.265,239.692,250.985,244.472z"/>
				<path fill="#FBE4D3" d="M253.192,244.472c0,0,0.393-8.326,3.773-8.324C256.965,236.148,253.911,239.692,253.192,244.472z"/>
			</g>
			<g>
				<g>
					<path fill="#707173" d="M186.303,230.799h50.802c0,0-6.129,42.282-25.4,36.69C192.433,261.898,186.303,230.799,186.303,230.799
						z"/>
					<path fill="#FAB217" d="M186.303,230.913h50.802c0,0-6.129,31.357-25.401,26.633
						C192.432,252.821,186.303,230.913,186.303,230.913z"/>
					<path fill="#3C2A34" d="M198.885,230.913h31.041c0,0-3.398,15.991-15.521,16.273
						C201.694,247.484,198.885,230.913,198.885,230.913z"/>
					<circle fill="#FBE4D3" cx="227.919" cy="236.472" r="2.617"/>
				</g>
				<g>
					<path fill="#707173" d="M317.266,230.799h-50.803c0,0,6.879,41.948,26.15,36.356
						C311.886,261.564,317.266,230.799,317.266,230.799z"/>
					<path fill="#FAB217" d="M317.266,230.913h-50.803c0,0,6.13,31.357,25.401,26.633
						C311.137,252.821,317.266,230.913,317.266,230.913z"/>
					<path fill="#3C2A34" d="M304.684,230.913h-31.041c0,0,3.398,15.991,15.521,16.273
						C301.876,247.484,304.684,230.913,304.684,230.913z"/>
					<circle fill="#FBE4D3" cx="301.27" cy="236.472" r="2.617"/>
				</g>
			</g>
			<path fill="#2F9DE0" d="M421.603,311.702c0,0-6.124,51.941-55.034,54.309l-1.986-80.43c0,0,18.91,41.889,37.137,3.902
				C401.719,289.484,421.359,298.243,421.603,311.702z"/>
			<polygon fill="#3C2A34" points="398.202,269.859 401.719,337.507 394.024,337.507 391.656,269.859 			"/>
			<path fill="#2F9DE0" d="M401.595,286.728c0,0-21.535,0.879-18.103,17.596c3.434,16.719,15.143,32.74,28.166,24.736
				C424.683,321.058,428.235,289.103,401.595,286.728z"/>
			<polygon fill="#E76650" points="372.443,275.138 348.464,233.605 372.443,192.071 420.401,192.071 444.38,233.605 
				420.401,275.138 			"/>
			<path fill="#EE3A3D" d="M368.541,207.124c0-3.442,0.346-6.804,0.988-10.057l-21.093,36.538l23.979,41.533h47.958l10.194-17.658
				c-3.415,0.715-6.953,1.094-10.579,1.094C391.575,258.574,368.541,235.54,368.541,207.124z"/>
			<path fill="#FFF9EF" d="M418.242,270.773H374.6l-21.84-37.168l21.84-37.169h43.642l21.845,37.169L418.242,270.773z
				 M376.125,268.109h40.592l20.278-34.504L416.717,199.1h-40.592l-20.275,34.505L376.125,268.109z"/>
			<g>
				<path fill="#FFFFFF" d="M369.372,236.97c0.064,3.842,2.518,5.424,5.359,5.424c2.034,0,3.261-0.354,4.326-0.807l0.484,2.034
					c-1.001,0.452-2.712,0.969-5.198,0.969c-4.811,0-7.685-3.165-7.685-7.879s2.777-8.427,7.33-8.427
					c5.101,0,6.457,4.489,6.457,7.362c0,0.581-0.064,1.033-0.097,1.324H369.372z M377.702,234.936
					c0.032-1.809-0.743-4.617-3.939-4.617c-2.873,0-4.133,2.647-4.358,4.617H377.702z"/>
				<path fill="#FFFFFF" d="M383.963,233.515c0-1.841-0.033-3.423-0.13-4.875h2.486l0.097,3.067h0.13
					c0.71-2.099,2.421-3.422,4.326-3.422c0.323,0,0.549,0.032,0.808,0.097v2.68c-0.291-0.064-0.582-0.097-0.969-0.097
					c-2.002,0-3.423,1.518-3.811,3.648c-0.064,0.388-0.129,0.84-0.129,1.324v8.33h-2.809V233.515z"/>
				<path fill="#FFFFFF" d="M394.649,233.515c0-1.841-0.033-3.423-0.13-4.875h2.486l0.097,3.067h0.13
					c0.71-2.099,2.421-3.422,4.326-3.422c0.323,0,0.549,0.032,0.808,0.097v2.68c-0.291-0.064-0.582-0.097-0.969-0.097
					c-2.002,0-3.423,1.518-3.811,3.648c-0.064,0.388-0.129,0.84-0.129,1.324v8.33h-2.809V233.515z"/>
				<path fill="#FFFFFF" d="M419.025,236.324c0,5.78-4.004,8.299-7.781,8.299c-4.229,0-7.491-3.101-7.491-8.04
					c0-5.23,3.423-8.298,7.749-8.298C415.99,228.284,419.025,231.545,419.025,236.324z M406.626,236.486
					c0,3.422,1.97,6.006,4.746,6.006c2.712,0,4.746-2.552,4.746-6.07c0-2.648-1.323-6.006-4.682-6.006
					C408.08,230.415,406.626,233.515,406.626,236.486z"/>
				<path fill="#FFFFFF" d="M422.607,233.515c0-1.841-0.032-3.423-0.13-4.875h2.486l0.097,3.067h0.13
					c0.71-2.099,2.421-3.422,4.326-3.422c0.323,0,0.549,0.032,0.807,0.097v2.68c-0.29-0.064-0.581-0.097-0.968-0.097
					c-2.002,0-3.423,1.518-3.811,3.648c-0.064,0.388-0.129,0.84-0.129,1.324v8.33h-2.809V233.515z"/>
			</g>
			<g>
				<path fill="#FFFAEF" d="M146.428,230.913c0,0,31.092,30.435,100.925,24.813C247.353,255.726,181.544,267.228,146.428,230.913z"
					/>
				<path fill="#FFFAEF" d="M135.164,246.843c0,0,43.11,28.275,111.65,10.901C246.814,257.744,174.659,278.34,135.164,246.843z"/>
				<path fill="#FFFAEF" d="M146.428,269.629c0,0,40.589,20.986,100.95-9.968C247.378,259.661,189.774,295.569,146.428,269.629z"/>
				<path fill="#FFFAEF" d="M357.144,230.913c0,0-31.094,30.435-100.926,24.813C256.218,255.726,322.027,267.228,357.144,230.913z"
					/>
				<path fill="#FFFAEF" d="M368.406,246.843c0,0-43.109,28.275-111.649,10.901C256.756,257.744,328.912,278.34,368.406,246.843z"/>
				<path fill="#FFFAEF" d="M357.144,269.629c0,0-40.592,20.986-100.953-9.968C256.191,259.661,313.796,295.569,357.144,269.629z"/>
			</g>
			<path fill="#FFFAEF" d="M348.716,300.141c0,0,22.996,31.962,14.828,50.729c0,0-3.516-9.815-9.756-18.999
				c0,0,4.896,31.113-19.415,49.258c0,0,21.364-3.891,21.974-39.244c0,0,7.734,12.311,8.771,17.086
				C365.119,358.971,379.648,334.875,348.716,300.141z"/>
		</g>
	</g>
	<rect x="-418.718" y="52.44" fill="#027BD8" width="148.493" height="113.994"/>
</g>
<g id="DESIGNED_BY_FREEPIK_1_">
</g>
</svg>
